<svg xmlns="http://www.w3.org/2000/svg" viewBox="0 0 64 64">
  <!-- Folder with files icon - optimized for favicon -->
  <defs>
    <linearGradient id="folderGrad" x1="0%" y1="0%" x2="100%" y2="100%">
      <stop offset="0%" style="stop-color:#3b82f6;stop-opacity:1" />
      <stop offset="100%" style="stop-color:#2563eb;stop-opacity:1" />
    </linearGradient>
  </defs>
  
  <!-- Folder -->
  <path d="M12 18h40c2.21 0 4 1.79 4 4v24c0 2.21-1.79 4-4 4H12c-2.21 0-4-1.79-4-4V22c0-2.21 1.79-4 4-4z" fill="url(#folderGrad)"/>
  <path d="M12 18h24l3 3h13c2.21 0 4 1.79 4 4v21c0 2.21-1.79 4-4 4H12c-2.21 0-4-1.79-4-4V22c0-2.21 1.79-4 4-4z" fill="#60a5fa" opacity="0.8"/>
  
  <!-- Files inside folder -->
  <rect x="18" y="28" width="6" height="8" rx="0.5" fill="#ffffff" opacity="0.95"/>
  <rect x="26" y="28" width="6" height="8" rx="0.5" fill="#ffffff" opacity="0.95"/>
  <rect x="34" y="28" width="6" height="8" rx="0.5" fill="#ffffff" opacity="0.95"/>
  
  <!-- Document lines -->
  <line x1="19.5" y1="30.5" x2="23" y2="30.5" stroke="#2563eb" stroke-width="0.6" stroke-linecap="round"/>
  <line x1="19.5" y1="32.5" x2="23" y2="32.5" stroke="#2563eb" stroke-width="0.6" stroke-linecap="round"/>
  <line x1="19.5" y1="34.5" x2="21.5" y2="34.5" stroke="#2563eb" stroke-width="0.6" stroke-linecap="round"/>
  
  <line x1="27.5" y1="30.5" x2="31" y2="30.5" stroke="#2563eb" stroke-width="0.6" stroke-linecap="round"/>
  <line x1="27.5" y1="32.5" x2="31" y2="32.5" stroke="#2563eb" stroke-width="0.6" stroke-linecap="round"/>
  <line x1="27.5" y1="34.5" x2="29.5" y2="34.5" stroke="#2563eb" stroke-width="0.6" stroke-linecap="round"/>
  
  <line x1="35.5" y1="30.5" x2="39" y2="30.5" stroke="#2563eb" stroke-width="0.6" stroke-linecap="round"/>
  <line x1="35.5" y1="32.5" x2="39" y2="32.5" stroke="#2563eb" stroke-width="0.6" stroke-linecap="round"/>
  <line x1="35.5" y1="34.5" x2="37.5" y2="34.5" stroke="#2563eb" stroke-width="0.6" stroke-linecap="round"/>
</svg>
